<?xml version="1.0" encoding="utf-8"?>
<svg width="512" height="512" viewBox="0 0 512 512" fill="none" xmlns="http://www.w3.org/2000/svg">
  <rect width="512" height="512" rx="100" fill="url(#paint0_linear)"/>
  <path d="M256 128L281.428 204.572L358 230L281.428 255.428L256 332L230.572 255.428L154 230L230.572 204.572L256 128Z" fill="white"/>
  <path opacity="0.5" d="M380 300L392.714 338.286L431 351L392.714 363.714L380 402L367.286 363.714L329 351L367.286 338.286L380 300Z" fill="white"/>
  <path opacity="0.3" d="M120 350L126.357 369.143L145.5 375.5L126.357 381.857L120 401L113.643 381.857L94.5 375.5L113.643 369.143L120 350Z" fill="white"/>
  <defs>
    <linearGradient id="paint0_linear" x1="0" y1="0" x2="512" y2="512" gradientUnits="userSpaceOnUse">
      <stop stop-color="#F97316"/>
      <stop offset="1" stop-color="#EF4444"/>
    </linearGradient>
  </defs>
</svg>
